<svg xmlns="http://www.w3.org/2000/svg" width="800" height="450" viewBox="0 0 800 450">
  <defs>
    <linearGradient id="bg" x1="0%" y1="0%" x2="100%" y2="100%">
      <stop offset="0%" style="stop-color:#1B5E20;stop-opacity:1" />
      <stop offset="100%" style="stop-color:#2E7D32;stop-opacity:1" />
    </linearGradient>
  </defs>
  <!-- Background -->
  <rect width="800" height="450" fill="url(#bg)" />
  <!-- Decorative circles -->
  <circle cx="700" cy="40" r="130" fill="#388E3C" opacity="0.25" />
  <circle cx="90" cy="400" r="110" fill="#1B5E20" opacity="0.5" />
  <!-- App window -->
  <rect x="55" y="55" width="510" height="340" rx="12" ry="12" fill="#FFFFFF" opacity="0.07" />
  <rect x="55" y="55" width="510" height="40" rx="12" ry="12" fill="#FFFFFF" opacity="0.1" />
  <circle cx="80" cy="75" r="6" fill="#FF5F57" />
  <circle cx="100" cy="75" r="6" fill="#FEBC2E" />
  <circle cx="120" cy="75" r="6" fill="#28C840" />
  <text x="300" y="80" text-anchor="middle" font-family="Segoe UI, Arial, sans-serif" font-size="13" fill="#FFFFFF" opacity="0.7">TalentConnect — Recruitment Platform</text>
  <!-- Nav bar -->
  <rect x="55" y="95" width="510" height="35" fill="#FFFFFF" opacity="0.06" />
  <text x="80" y="117" font-family="Segoe UI, Arial, sans-serif" font-size="12" fill="#A5D6A7">Dashboard</text>
  <text x="160" y="117" font-family="Segoe UI, Arial, sans-serif" font-size="12" fill="#FFFFFF" opacity="0.6">Jobs</text>
  <text x="210" y="117" font-family="Segoe UI, Arial, sans-serif" font-size="12" fill="#FFFFFF" opacity="0.6">Candidates</text>
  <text x="300" y="117" font-family="Segoe UI, Arial, sans-serif" font-size="12" fill="#FFFFFF" opacity="0.6">Interviews</text>
  <text x="390" y="117" font-family="Segoe UI, Arial, sans-serif" font-size="12" fill="#FFFFFF" opacity="0.6">Reports</text>
  <!-- Stats row -->
  <rect x="68" y="142" width="100" height="60" rx="8" fill="#FFFFFF" opacity="0.1" />
  <text x="118" y="163" text-anchor="middle" font-family="Segoe UI, Arial, sans-serif" font-size="11" fill="#A5D6A7">Open Roles</text>
  <text x="118" y="185" text-anchor="middle" font-family="Segoe UI, Arial, sans-serif" font-size="22" font-weight="bold" fill="#FFFFFF">12</text>
  <rect x="178" y="142" width="100" height="60" rx="8" fill="#FFFFFF" opacity="0.1" />
  <text x="228" y="163" text-anchor="middle" font-family="Segoe UI, Arial, sans-serif" font-size="11" fill="#A5D6A7">Applicants</text>
  <text x="228" y="185" text-anchor="middle" font-family="Segoe UI, Arial, sans-serif" font-size="22" font-weight="bold" fill="#FFFFFF">84</text>
  <rect x="288" y="142" width="100" height="60" rx="8" fill="#FFFFFF" opacity="0.1" />
  <text x="338" y="163" text-anchor="middle" font-family="Segoe UI, Arial, sans-serif" font-size="11" fill="#A5D6A7">Shortlisted</text>
  <text x="338" y="185" text-anchor="middle" font-family="Segoe UI, Arial, sans-serif" font-size="22" font-weight="bold" fill="#A5D6A7">21</text>
  <rect x="398" y="142" width="100" height="60" rx="8" fill="#FFFFFF" opacity="0.1" />
  <text x="448" y="163" text-anchor="middle" font-family="Segoe UI, Arial, sans-serif" font-size="11" fill="#A5D6A7">Interviews</text>
  <text x="448" y="185" text-anchor="middle" font-family="Segoe UI, Arial, sans-serif" font-size="22" font-weight="bold" fill="#FFB74D">7</text>
  <!-- Candidate pipeline table -->
  <text x="68" y="225" font-family="Segoe UI, Arial, sans-serif" font-size="11" font-weight="bold" fill="#A5D6A7">CANDIDATE PIPELINE</text>
  <rect x="68" y="232" width="430" height="28" rx="4" fill="#FFFFFF" opacity="0.08" />
  <text x="88" y="250" font-family="Segoe UI, Arial, sans-serif" font-size="11" fill="#FFFFFF" opacity="0.6">Candidate</text>
  <text x="220" y="250" font-family="Segoe UI, Arial, sans-serif" font-size="11" fill="#FFFFFF" opacity="0.6">Role Applied</text>
  <text x="370" y="250" font-family="Segoe UI, Arial, sans-serif" font-size="11" fill="#FFFFFF" opacity="0.6">Stage</text>
  <!-- Rows -->
  <rect x="68" y="264" width="430" height="24" rx="3" fill="#FFFFFF" opacity="0.05" />
  <text x="88" y="280" font-family="Segoe UI, Arial, sans-serif" font-size="11" fill="#FFFFFF">Alex Hughes</text>
  <text x="220" y="280" font-family="Segoe UI, Arial, sans-serif" font-size="11" fill="#FFFFFF" opacity="0.7">.NET Developer</text>
  <rect x="365" y="267" width="70" height="16" rx="8" fill="#81C784" opacity="0.8" />
  <text x="400" y="278" text-anchor="middle" font-family="Segoe UI, Arial, sans-serif" font-size="10" fill="#FFF">Interview</text>
  <rect x="68" y="292" width="430" height="24" rx="3" fill="#FFFFFF" opacity="0.03" />
  <text x="88" y="308" font-family="Segoe UI, Arial, sans-serif" font-size="11" fill="#FFFFFF">Emma Carter</text>
  <text x="220" y="308" font-family="Segoe UI, Arial, sans-serif" font-size="11" fill="#FFFFFF" opacity="0.7">Blazor Engineer</text>
  <rect x="365" y="295" width="75" height="16" rx="8" fill="#FFB74D" opacity="0.8" />
  <text x="402" y="306" text-anchor="middle" font-family="Segoe UI, Arial, sans-serif" font-size="10" fill="#FFF">Shortlisted</text>
  <rect x="68" y="320" width="430" height="24" rx="3" fill="#FFFFFF" opacity="0.05" />
  <text x="88" y="336" font-family="Segoe UI, Arial, sans-serif" font-size="11" fill="#FFFFFF">Omar Farooq</text>
  <text x="220" y="336" font-family="Segoe UI, Arial, sans-serif" font-size="11" fill="#FFFFFF" opacity="0.7">Solutions Architect</text>
  <rect x="365" y="323" width="60" height="16" rx="8" fill="#64B5F6" opacity="0.8" />
  <text x="395" y="334" text-anchor="middle" font-family="Segoe UI, Arial, sans-serif" font-size="10" fill="#FFF">Applied</text>
  <rect x="68" y="348" width="430" height="24" rx="3" fill="#FFFFFF" opacity="0.03" />
  <text x="88" y="364" font-family="Segoe UI, Arial, sans-serif" font-size="11" fill="#FFFFFF">Sophie Reed</text>
  <text x="220" y="364" font-family="Segoe UI, Arial, sans-serif" font-size="11" fill="#FFFFFF" opacity="0.7">Full Stack Dev</text>
  <rect x="365" y="351" width="70" height="16" rx="8" fill="#81C784" opacity="0.8" />
  <text x="400" y="362" text-anchor="middle" font-family="Segoe UI, Arial, sans-serif" font-size="10" fill="#FFF">Offer Made</text>
  <!-- Right info panel -->
  <text x="618" y="100" text-anchor="middle" font-family="Segoe UI, Arial, sans-serif" font-size="22" font-weight="bold" fill="#FFFFFF">TalentConnect</text>
  <text x="618" y="122" text-anchor="middle" font-family="Segoe UI, Arial, sans-serif" font-size="12" fill="#A5D6A7">Recruitment Platform</text>
  <!-- Tech chips -->
  <rect x="555" y="140" width="55" height="22" rx="11" fill="#FFFFFF" opacity="0.15" />
  <text x="582" y="155" text-anchor="middle" font-family="Segoe UI, Arial, sans-serif" font-size="10" fill="#FFFFFF">Blazor</text>
  <rect x="619" y="140" width="75" height="22" rx="11" fill="#FFFFFF" opacity="0.15" />
  <text x="656" y="155" text-anchor="middle" font-family="Segoe UI, Arial, sans-serif" font-size="10" fill="#FFFFFF">ASP.NET Core</text>
  <rect x="555" y="169" width="65" height="22" rx="11" fill="#FFFFFF" opacity="0.15" />
  <text x="587" y="184" text-anchor="middle" font-family="Segoe UI, Arial, sans-serif" font-size="10" fill="#FFFFFF">EF Core</text>
  <rect x="629" y="169" width="65" height="22" rx="11" fill="#FFFFFF" opacity="0.15" />
  <text x="661" y="184" text-anchor="middle" font-family="Segoe UI, Arial, sans-serif" font-size="10" fill="#FFFFFF">SQL Server</text>
  <rect x="555" y="198" width="65" height="22" rx="11" fill="#FFFFFF" opacity="0.15" />
  <text x="587" y="213" text-anchor="middle" font-family="Segoe UI, Arial, sans-serif" font-size="10" fill="#FFFFFF">MudBlazor</text>
  <rect x="629" y="198" width="65" height="22" rx="11" fill="#FFFFFF" opacity="0.15" />
  <text x="661" y="213" text-anchor="middle" font-family="Segoe UI, Arial, sans-serif" font-size="10" fill="#FFFFFF">REST API</text>
  <!-- Features -->
  <text x="555" y="248" font-family="Segoe UI, Arial, sans-serif" font-size="12" fill="#A5D6A7" font-weight="bold">Key Features</text>
  <circle cx="563" cy="266" r="3" fill="#A5D6A7" />
  <text x="572" y="270" font-family="Segoe UI, Arial, sans-serif" font-size="11" fill="#FFFFFF" opacity="0.9">Job posting management</text>
  <circle cx="563" cy="284" r="3" fill="#A5D6A7" />
  <text x="572" y="288" font-family="Segoe UI, Arial, sans-serif" font-size="11" fill="#FFFFFF" opacity="0.9">Candidate pipeline tracking</text>
  <circle cx="563" cy="302" r="3" fill="#A5D6A7" />
  <text x="572" y="306" font-family="Segoe UI, Arial, sans-serif" font-size="11" fill="#FFFFFF" opacity="0.9">Interview scheduling</text>
  <circle cx="563" cy="320" r="3" fill="#A5D6A7" />
  <text x="572" y="324" font-family="Segoe UI, Arial, sans-serif" font-size="11" fill="#FFFFFF" opacity="0.9">Automated notifications</text>
  <circle cx="563" cy="338" r="3" fill="#A5D6A7" />
  <text x="572" y="342" font-family="Segoe UI, Arial, sans-serif" font-size="11" fill="#FFFFFF" opacity="0.9">Reporting &amp; analytics</text>
</svg>
